<?xml version="1.0" standalone="no"?><!DOCTYPE svg PUBLIC "-//W3C//DTD SVG 1.1//EN" "http://www.w3.org/Graphics/SVG/1.1/DTD/svg11.dtd"><svg t="1699884128249" class="icon" viewBox="0 0 1024 1024" version="1.1" xmlns="http://www.w3.org/2000/svg" p-id="6780" xmlns:xlink="http://www.w3.org/1999/xlink" width="200" height="200"><path d="M193.422222 403.911111c-39.822222 12.325926-62.577778 54.992593-50.251852 95.762963l83.437037 270.222222c12.325926 39.822222 54.992593 62.577778 95.762963 50.251852l87.22963-26.548148-2.844444 128c0 12.325926 6.637037 15.17037 15.17037 5.688889L548.02963 786.962963 408.651852 337.540741l-215.22963 66.37037z" fill="#B3D246" p-id="6781"></path><path d="M532.859259 736.711111l15.170371 49.303704-127.051852 141.274074c-8.533333 9.481481-15.17037 6.637037-15.170371-5.688889l0.948149-45.511111 126.103703-139.377778z" fill="#7EB033" p-id="6782"></path><path d="M623.881481 270.222222l-215.229629 66.370371L548.02963 786.962963l40.77037-44.562963c1.896296-1.896296 2.844444-3.792593 3.792593-5.688889l161.185185-49.303704c39.822222-12.325926 62.577778-54.992593 50.251852-95.762963L720.592593 321.422222c-13.274074-40.77037-56.888889-63.525926-96.711112-51.2z" fill="#7EB033" p-id="6783"></path><path d="M836.266667 95.762963c31.288889-9.481481 65.422222 8.533333 74.903703 39.822222l65.422223 212.385185c9.481481 31.288889-8.533333 65.422222-39.822223 74.903704l-68.266666 20.859259 58.785185 82.488889c5.688889 8.533333 2.844444 12.325926-6.637037 10.42963L775.585185 502.518519 666.548148 148.859259l169.718519-53.096296z" fill="#FD9B13" p-id="6784"></path><path d="M764.207407 463.644444l12.325926 38.874075 145.066667 35.081481c9.481481 1.896296 13.274074-2.844444 6.637037-10.42963l-20.859259-28.444444-143.170371-35.081482zM496.82963 201.007407l169.718518-52.148148L775.585185 502.518519l-46.459259-11.377778c-1.896296-0.948148-3.792593-0.948148-4.740741-1.896297L597.333333 528.118519c-31.288889 9.481481-65.422222-8.533333-74.903703-39.822223l-65.422223-212.385185c-10.42963-31.288889 7.585185-65.422222 39.822223-74.903704z" fill="#FDB813" p-id="6785"></path><path d="M581.980875 368.978833a36.02963 36.02963 0 1 0 68.838139-21.303697 36.02963 36.02963 0 1 0-68.838139 21.303697Z" fill="#FFFFFF" p-id="6786"></path><path d="M686.079623 336.004151a36.02963 36.02963 0 1 0 68.838139-21.303697 36.02963 36.02963 0 1 0-68.838139 21.303697Z" fill="#FFFFFF" p-id="6787"></path><path d="M791.36888 303.608377a36.02963 36.02963 0 1 0 68.838138-21.303698 36.02963 36.02963 0 1 0-68.838138 21.303698Z" fill="#FFFFFF" p-id="6788"></path></svg>